{
	"asset":{
		"generator":"Khronos glTF Blender I/O v5.0.21",
		"version":"2.0"
	},
	"extensionsUsed":[
		"KHR_materials_specular",
		"KHR_materials_ior"
	],
	"scene":0,
	"scenes":[
		{
			"name":"Scene",
			"nodes":[
				0,
				1,
				2,
				3,
				4,
				5,
				6,
				7,
				8,
				9,
				10
			]
		}
	],
	"nodes":[
		{
			"mesh":0,
			"name":"Main Building",
			"translation":[
				-2.4794228076934814,
				5.928778171539307,
				11.961082458496094
			]
		},
		{
			"mesh":1,
			"name":"Pillar",
			"translation":[
				-7.173913955688477,
				1.43478262424469,
				13.77173900604248
			]
		},
		{
			"mesh":2,
			"name":"Main Door",
			"translation":[
				-1.0499999523162842,
				1,
				3
			]
		},
		{
			"mesh":3,
			"name":"Floor"
		},
		{
			"mesh":4,
			"name":"Glass",
			"rotation":[
				0,
				0,
				-0.7071068286895752,
				0.7071068286895752
			],
			"translation":[
				-4.590834617614746,
				5.396740913391113,
				11.820135116577148
			]
		},
		{
			"mesh":5,
			"name":"Exterior",
			"translation":[
				-2.8272485733032227,
				5.724170684814453,
				8.897747039794922
			]
		},
		{
			"mesh":6,
			"name":"Windows Frame",
			"translation":[
				-2.720792293548584,
				5.801706790924072,
				8.84311580657959
			]
		},
		{
			"mesh":7,
			"name":"BackDoor",
			"translation":[
				-7.049999713897705,
				1,
				9.5
			]
		},
		{
			"mesh":8,
			"name":"Cube",
			"translation":[
				-10.5,
				4.5,
				12.75
			]
		},
		{
			"mesh":9,
			"name":"Cube.001",
			"translation":[
				-10.55000114440918,
				4.5,
				12.750000953674316
			]
		},
		{
			"mesh":10,
			"name":"Cube.002",
			"translation":[
				-10.010000228881836,
				5,
				10
			]
		}
	],
	"materials":[
		{
			"doubleSided":true,
			"name":"Grey",
			"pbrMetallicRoughness":{
				"baseColorFactor":[
					0.049549393355846405,
					0.049549393355846405,
					0.049549393355846405,
					1
				],
				"metallicFactor":0
			}
		},
		{
			"doubleSided":true,
			"name":"White",
			"pbrMetallicRoughness":{
				"baseColorFactor":[
					0.800000011920929,
					0.800000011920929,
					0.800000011920929,
					1
				],
				"metallicFactor":0
			}
		},
		{
			"doubleSided":true,
			"name":"Black",
			"pbrMetallicRoughness":{
				"baseColorFactor":[
					0,
					0,
					0,
					1
				],
				"metallicFactor":0
			}
		},
		{
			"doubleSided":true,
			"name":"Paving",
			"pbrMetallicRoughness":{
				"metallicFactor":0,
				"metallicRoughnessTexture":{
					"index":0
				}
			}
		},
		{
			"doubleSided":true,
			"extensions":{
				"KHR_materials_specular":{
					"specularFactor":0
				},
				"KHR_materials_ior":{
					"ior":1.4500000476837158
				}
			},
			"name":"Behind Glass",
			"pbrMetallicRoughness":{
				"baseColorFactor":[
					0.3295462131500244,
					0.37659913301467896,
					0.4818321168422699,
					1
				],
				"roughnessFactor":0.20000000298023224
			}
		},
		{
			"doubleSided":true,
			"name":"Glass"
		},
		{
			"doubleSided":true,
			"name":"DarkGrey",
			"pbrMetallicRoughness":{
				"baseColorFactor":[
					0.01002187468111515,
					0.01002187468111515,
					0.01002187468111515,
					1
				],
				"metallicFactor":0
			}
		}
	],
	"meshes":[
		{
			"name":"Cube.004",
			"primitives":[
				{
					"attributes":{
						"POSITION":0,
						"NORMAL":1,
						"TEXCOORD_0":2
					},
					"indices":3,
					"material":0
				},
				{
					"attributes":{
						"POSITION":4,
						"NORMAL":5,
						"TEXCOORD_0":6
					},
					"indices":7,
					"material":1
				}
			]
		},
		{
			"name":"Cube.006",
			"primitives":[
				{
					"attributes":{
						"POSITION":8,
						"NORMAL":9,
						"TEXCOORD_0":10
					},
					"indices":11,
					"material":0
				}
			]
		},
		{
			"name":"Cube.010",
			"primitives":[
				{
					"attributes":{
						"POSITION":12,
						"NORMAL":13,
						"TEXCOORD_0":14
					},
					"indices":15,
					"material":2
				}
			]
		},
		{
			"name":"Plane.002",
			"primitives":[
				{
					"attributes":{
						"POSITION":16,
						"NORMAL":17,
						"TEXCOORD_0":18
					},
					"indices":19,
					"material":3
				}
			]
		},
		{
			"name":"Plane.005",
			"primitives":[
				{
					"attributes":{
						"POSITION":20,
						"NORMAL":21,
						"TEXCOORD_0":22
					},
					"indices":23,
					"material":4
				},
				{
					"attributes":{
						"POSITION":24,
						"NORMAL":25,
						"TEXCOORD_0":26
					},
					"indices":27,
					"material":5
				},
				{
					"attributes":{
						"POSITION":28,
						"NORMAL":29,
						"TEXCOORD_0":30
					},
					"indices":19,
					"material":2
				}
			]
		},
		{
			"name":"Cube.043",
			"primitives":[
				{
					"attributes":{
						"POSITION":31,
						"NORMAL":32,
						"TEXCOORD_0":33
					},
					"indices":34,
					"material":6
				}
			]
		},
		{
			"name":"Cube.054",
			"primitives":[
				{
					"attributes":{
						"POSITION":35,
						"NORMAL":36,
						"TEXCOORD_0":37
					},
					"indices":38,
					"material":2
				}
			]
		},
		{
			"name":"Cube.014",
			"primitives":[
				{
					"attributes":{
						"POSITION":39,
						"NORMAL":40,
						"TEXCOORD_0":41
					},
					"indices":15,
					"material":0
				}
			]
		},
		{
			"name":"Cube.005",
			"primitives":[
				{
					"attributes":{
						"POSITION":42,
						"NORMAL":43,
						"TEXCOORD_0":44
					},
					"indices":45
				}
			]
		},
		{
			"name":"Cube.008",
			"primitives":[
				{
					"attributes":{
						"POSITION":46,
						"NORMAL":47,
						"TEXCOORD_0":48
					},
					"indices":49,
					"material":2
				}
			]
		},
		{
			"name":"Cube.011",
			"primitives":[
				{
					"attributes":{
						"POSITION":50,
						"NORMAL":51,
						"TEXCOORD_0":52
					},
					"indices":53,
					"material":6
				}
			]
		}
	],
	"textures":[
		{
			"sampler":0,
			"source":0
		}
	],
	"images":[
		{
			"mimeType":"image/png",
			"name":"Image",
			"uri":"Image.png"
		}
	],
	"accessors":[
		{
			"bufferView":0,
			"componentType":5126,
			"count":337,
			"max":[
				4.4794230461120605,
				4.071222305297852,
				9.038917541503906
			],
			"min":[
				-8.520578384399414,
				-5.928778171539307,
				-11.961082458496094
			],
			"type":"VEC3"
		},
		{
			"bufferView":1,
			"componentType":5126,
			"count":337,
			"type":"VEC3"
		},
		{
			"bufferView":2,
			"componentType":5126,
			"count":337,
			"type":"VEC2"
		},
		{
			"bufferView":3,
			"componentType":5123,
			"count":663,
			"type":"SCALAR"
		},
		{
			"bufferView":4,
			"componentType":5126,
			"count":152,
			"max":[
				4.4794230461120605,
				4.071222305297852,
				9.038917541503906
			],
			"min":[
				-8.520578384399414,
				-2.9287774562835693,
				-11.961082458496094
			],
			"type":"VEC3"
		},
		{
			"bufferView":5,
			"componentType":5126,
			"count":152,
			"type":"VEC3"
		},
		{
			"bufferView":6,
			"componentType":5126,
			"count":152,
			"type":"VEC2"
		},
		{
			"bufferView":7,
			"componentType":5123,
			"count":294,
			"type":"SCALAR"
		},
		{
			"bufferView":8,
			"componentType":5126,
			"count":252,
			"max":[
				7.673913955688477,
				1.56521737575531,
				5.7282609939575195
			],
			"min":[
				-1.8260860443115234,
				-1.43478262424469,
				-12.77173900604248
			],
			"type":"VEC3"
		},
		{
			"bufferView":9,
			"componentType":5126,
			"count":252,
			"type":"VEC3"
		},
		{
			"bufferView":10,
			"componentType":5126,
			"count":252,
			"type":"VEC2"
		},
		{
			"bufferView":11,
			"componentType":5123,
			"count":396,
			"type":"SCALAR"
		},
		{
			"bufferView":12,
			"componentType":5126,
			"count":48,
			"max":[
				0.05000000819563866,
				1,
				1
			],
			"min":[
				-0.05000000819563866,
				-1,
				-0.9999999403953552
			],
			"type":"VEC3"
		},
		{
			"bufferView":13,
			"componentType":5126,
			"count":48,
			"type":"VEC3"
		},
		{
			"bufferView":14,
			"componentType":5126,
			"count":48,
			"type":"VEC2"
		},
		{
			"bufferView":15,
			"componentType":5123,
			"count":72,
			"type":"SCALAR"
		},
		{
			"bufferView":16,
			"componentType":5126,
			"count":4,
			"max":[
				54.13668441772461,
				0,
				54.13668441772461
			],
			"min":[
				-54.13668441772461,
				0,
				-54.13668441772461
			],
			"type":"VEC3"
		},
		{
			"bufferView":17,
			"componentType":5126,
			"count":4,
			"type":"VEC3"
		},
		{
			"bufferView":18,
			"componentType":5126,
			"count":4,
			"type":"VEC2"
		},
		{
			"bufferView":19,
			"componentType":5123,
			"count":6,
			"type":"SCALAR"
		},
		{
			"bufferView":20,
			"componentType":5126,
			"count":72,
			"max":[
				5.3967413902282715,
				5.690834999084473,
				8.679864883422852
			],
			"min":[
				-4.503258228302002,
				-6.429165840148926,
				-11.720135688781738
			],
			"type":"VEC3"
		},
		{
			"bufferView":21,
			"componentType":5126,
			"count":72,
			"type":"VEC3"
		},
		{
			"bufferView":22,
			"componentType":5126,
			"count":72,
			"type":"VEC2"
		},
		{
			"bufferView":23,
			"componentType":5123,
			"count":108,
			"type":"SCALAR"
		},
		{
			"bufferView":24,
			"componentType":5126,
			"count":76,
			"max":[
				5.3967413902282715,
				6.090834617614746,
				8.679866790771484
			],
			"min":[
				-4.50325870513916,
				-6.489166259765625,
				-11.720135688781738
			],
			"type":"VEC3"
		},
		{
			"bufferView":25,
			"componentType":5126,
			"count":76,
			"type":"VEC3"
		},
		{
			"bufferView":26,
			"componentType":5126,
			"count":76,
			"type":"VEC2"
		},
		{
			"bufferView":27,
			"componentType":5123,
			"count":114,
			"type":"SCALAR"
		},
		{
			"bufferView":28,
			"componentType":5126,
			"count":4,
			"max":[
				-1.7032581567764282,
				-5.479165077209473,
				8.079866409301758
			],
			"min":[
				-3.503258228302002,
				-6.379164695739746,
				-11.720134735107422
			],
			"type":"VEC3"
		},
		{
			"bufferView":29,
			"componentType":5126,
			"count":4,
			"type":"VEC3"
		},
		{
			"bufferView":30,
			"componentType":5126,
			"count":4,
			"type":"VEC2"
		},
		{
			"bufferView":31,
			"componentType":5126,
			"count":2526,
			"max":[
				3.8472487926483154,
				4.275829315185547,
				11.12225341796875
			],
			"min":[
				-8.272751808166504,
				-5.724170684814453,
				-8.917747497558594
			],
			"type":"VEC3"
		},
		{
			"bufferView":32,
			"componentType":5126,
			"count":2526,
			"type":"VEC3"
		},
		{
			"bufferView":33,
			"componentType":5126,
			"count":2526,
			"type":"VEC2"
		},
		{
			"bufferView":34,
			"componentType":5123,
			"count":3852,
			"type":"SCALAR"
		},
		{
			"bufferView":35,
			"componentType":5126,
			"count":1596,
			"max":[
				4.320792198181152,
				4.1982927322387695,
				11.756885528564453
			],
			"min":[
				-8.379207611083984,
				-5.801706790924072,
				-8.863116264343262
			],
			"type":"VEC3"
		},
		{
			"bufferView":36,
			"componentType":5126,
			"count":1596,
			"type":"VEC3"
		},
		{
			"bufferView":37,
			"componentType":5126,
			"count":1596,
			"type":"VEC2"
		},
		{
			"bufferView":38,
			"componentType":5123,
			"count":2544,
			"type":"SCALAR"
		},
		{
			"bufferView":39,
			"componentType":5126,
			"count":48,
			"max":[
				0.05000000819563866,
				1,
				1
			],
			"min":[
				-0.05000000819563866,
				-1,
				-0.9999999403953552
			],
			"type":"VEC3"
		},
		{
			"bufferView":40,
			"componentType":5126,
			"count":48,
			"type":"VEC3"
		},
		{
			"bufferView":41,
			"componentType":5126,
			"count":48,
			"type":"VEC2"
		},
		{
			"bufferView":42,
			"componentType":5126,
			"count":55,
			"max":[
				0.5,
				1.5,
				8.25
			],
			"min":[
				-0.5,
				-1.5,
				-8.25
			],
			"type":"VEC3"
		},
		{
			"bufferView":43,
			"componentType":5126,
			"count":55,
			"type":"VEC3"
		},
		{
			"bufferView":44,
			"componentType":5126,
			"count":55,
			"type":"VEC2"
		},
		{
			"bufferView":45,
			"componentType":5123,
			"count":96,
			"type":"SCALAR"
		},
		{
			"bufferView":46,
			"componentType":5126,
			"count":48,
			"max":[
				0.04999995231628418,
				1,
				7.75
			],
			"min":[
				-0.05000007152557373,
				-1,
				-7.75
			],
			"type":"VEC3"
		},
		{
			"bufferView":47,
			"componentType":5126,
			"count":48,
			"type":"VEC3"
		},
		{
			"bufferView":48,
			"componentType":5126,
			"count":48,
			"type":"VEC2"
		},
		{
			"bufferView":49,
			"componentType":5123,
			"count":96,
			"type":"SCALAR"
		},
		{
			"bufferView":50,
			"componentType":5126,
			"count":420,
			"max":[
				0.010000019334256649,
				2,
				10.020000457763672
			],
			"min":[
				-0.010000021196901798,
				-2,
				-10.020000457763672
			],
			"type":"VEC3"
		},
		{
			"bufferView":51,
			"componentType":5126,
			"count":420,
			"type":"VEC3"
		},
		{
			"bufferView":52,
			"componentType":5126,
			"count":420,
			"type":"VEC2"
		},
		{
			"bufferView":53,
			"componentType":5123,
			"count":636,
			"type":"SCALAR"
		}
	],
	"bufferViews":[
		{
			"buffer":0,
			"byteLength":4044,
			"byteOffset":0,
			"target":34962
		},
		{
			"buffer":0,
			"byteLength":4044,
			"byteOffset":4044,
			"target":34962
		},
		{
			"buffer":0,
			"byteLength":2696,
			"byteOffset":8088,
			"target":34962
		},
		{
			"buffer":0,
			"byteLength":1326,
			"byteOffset":10784,
			"target":34963
		},
		{
			"buffer":0,
			"byteLength":1824,
			"byteOffset":12112,
			"target":34962
		},
		{
			"buffer":0,
			"byteLength":1824,
			"byteOffset":13936,
			"target":34962
		},
		{
			"buffer":0,
			"byteLength":1216,
			"byteOffset":15760,
			"target":34962
		},
		{
			"buffer":0,
			"byteLength":588,
			"byteOffset":16976,
			"target":34963
		},
		{
			"buffer":0,
			"byteLength":3024,
			"byteOffset":17564,
			"target":34962
		},
		{
			"buffer":0,
			"byteLength":3024,
			"byteOffset":20588,
			"target":34962
		},
		{
			"buffer":0,
			"byteLength":2016,
			"byteOffset":23612,
			"target":34962
		},
		{
			"buffer":0,
			"byteLength":792,
			"byteOffset":25628,
			"target":34963
		},
		{
			"buffer":0,
			"byteLength":576,
			"byteOffset":26420,
			"target":34962
		},
		{
			"buffer":0,
			"byteLength":576,
			"byteOffset":26996,
			"target":34962
		},
		{
			"buffer":0,
			"byteLength":384,
			"byteOffset":27572,
			"target":34962
		},
		{
			"buffer":0,
			"byteLength":144,
			"byteOffset":27956,
			"target":34963
		},
		{
			"buffer":0,
			"byteLength":48,
			"byteOffset":28100,
			"target":34962
		},
		{
			"buffer":0,
			"byteLength":48,
			"byteOffset":28148,
			"target":34962
		},
		{
			"buffer":0,
			"byteLength":32,
			"byteOffset":28196,
			"target":34962
		},
		{
			"buffer":0,
			"byteLength":12,
			"byteOffset":28228,
			"target":34963
		},
		{
			"buffer":0,
			"byteLength":864,
			"byteOffset":28240,
			"target":34962
		},
		{
			"buffer":0,
			"byteLength":864,
			"byteOffset":29104,
			"target":34962
		},
		{
			"buffer":0,
			"byteLength":576,
			"byteOffset":29968,
			"target":34962
		},
		{
			"buffer":0,
			"byteLength":216,
			"byteOffset":30544,
			"target":34963
		},
		{
			"buffer":0,
			"byteLength":912,
			"byteOffset":30760,
			"target":34962
		},
		{
			"buffer":0,
			"byteLength":912,
			"byteOffset":31672,
			"target":34962
		},
		{
			"buffer":0,
			"byteLength":608,
			"byteOffset":32584,
			"target":34962
		},
		{
			"buffer":0,
			"byteLength":228,
			"byteOffset":33192,
			"target":34963
		},
		{
			"buffer":0,
			"byteLength":48,
			"byteOffset":33420,
			"target":34962
		},
		{
			"buffer":0,
			"byteLength":48,
			"byteOffset":33468,
			"target":34962
		},
		{
			"buffer":0,
			"byteLength":32,
			"byteOffset":33516,
			"target":34962
		},
		{
			"buffer":0,
			"byteLength":30312,
			"byteOffset":33548,
			"target":34962
		},
		{
			"buffer":0,
			"byteLength":30312,
			"byteOffset":63860,
			"target":34962
		},
		{
			"buffer":0,
			"byteLength":20208,
			"byteOffset":94172,
			"target":34962
		},
		{
			"buffer":0,
			"byteLength":7704,
			"byteOffset":114380,
			"target":34963
		},
		{
			"buffer":0,
			"byteLength":19152,
			"byteOffset":122084,
			"target":34962
		},
		{
			"buffer":0,
			"byteLength":19152,
			"byteOffset":141236,
			"target":34962
		},
		{
			"buffer":0,
			"byteLength":12768,
			"byteOffset":160388,
			"target":34962
		},
		{
			"buffer":0,
			"byteLength":5088,
			"byteOffset":173156,
			"target":34963
		},
		{
			"buffer":0,
			"byteLength":576,
			"byteOffset":178244,
			"target":34962
		},
		{
			"buffer":0,
			"byteLength":576,
			"byteOffset":178820,
			"target":34962
		},
		{
			"buffer":0,
			"byteLength":384,
			"byteOffset":179396,
			"target":34962
		},
		{
			"buffer":0,
			"byteLength":660,
			"byteOffset":179780,
			"target":34962
		},
		{
			"buffer":0,
			"byteLength":660,
			"byteOffset":180440,
			"target":34962
		},
		{
			"buffer":0,
			"byteLength":440,
			"byteOffset":181100,
			"target":34962
		},
		{
			"buffer":0,
			"byteLength":192,
			"byteOffset":181540,
			"target":34963
		},
		{
			"buffer":0,
			"byteLength":576,
			"byteOffset":181732,
			"target":34962
		},
		{
			"buffer":0,
			"byteLength":576,
			"byteOffset":182308,
			"target":34962
		},
		{
			"buffer":0,
			"byteLength":384,
			"byteOffset":182884,
			"target":34962
		},
		{
			"buffer":0,
			"byteLength":192,
			"byteOffset":183268,
			"target":34963
		},
		{
			"buffer":0,
			"byteLength":5040,
			"byteOffset":183460,
			"target":34962
		},
		{
			"buffer":0,
			"byteLength":5040,
			"byteOffset":188500,
			"target":34962
		},
		{
			"buffer":0,
			"byteLength":3360,
			"byteOffset":193540,
			"target":34962
		},
		{
			"buffer":0,
			"byteLength":1272,
			"byteOffset":196900,
			"target":34963
		}
	],
	"samplers":[
		{
			"magFilter":9729,
			"minFilter":9987
		}
	],
	"buffers":[
		{
			"byteLength":198172,
			"uri":"OfficeBuilding3.bin"
		}
	]
}
